HIERARCHY
ROOT Hip
{
	OFFSET 0 0 0
	CHANNELS 6 Xposition Yposition Zposition Zrotation Yrotation Xrotation
	JOINT ShoulderCenter
	{
		OFFSET 0 0.4363 0
		CHANNELS 3 Zrotation Yrotation Xrotation
		JOINT Head
		{
			OFFSET 0 0.1849 0
			CHANNELS 3 Zrotation Yrotation Xrotation
			End Site
			{
				OFFSET 0.0 0.0891 0.0
			}
		}
		JOINT ShoulderLeft
		{
			OFFSET -0.14 0 0
			CHANNELS 3 Zrotation Yrotation Xrotation
			JOINT ElbowLeft
			{
				OFFSET -0.25 0 0
				CHANNELS 3 Zrotation Yrotation Xrotation
				JOINT WristLeft
				{
					OFFSET -0.23 0 0
					CHANNELS 3 Zrotation Yrotation Xrotation
					End Site
					{
						OFFSET -0.0832 0.0 0.0
					}
				}
			}
		}
		JOINT ShoulderRight
		{
			OFFSET 0.14 0 0
			CHANNELS 3 Zrotation Yrotation Xrotation
			JOINT ElbowRight
			{
				OFFSET 0.25 0 0
				CHANNELS 3 Zrotation Yrotation Xrotation
				JOINT WristRight
				{
					OFFSET 0.23 0 0
					CHANNELS 3 Zrotation Yrotation Xrotation
					End Site
					{
						OFFSET 0.0832 0.0 0.0
					}
				}
			}
		}
	}
	JOINT HipLeft
	{
		OFFSET -0.0952 0 0
		CHANNELS 3 Zrotation Yrotation Xrotation
		JOINT KneeLeft
		{
			OFFSET 0 -0.3732 0
			CHANNELS 3 Zrotation Yrotation Xrotation
			JOINT AnkleLeft
			{
				OFFSET 0 -0.346 0
				CHANNELS 3 Zrotation Yrotation Xrotation
				End Site
				{
					OFFSET 0.0 0.0 0.0891
				}
			}
		}
	}
	JOINT HipRight
	{
		OFFSET 0.0952 0 0
		CHANNELS 3 Zrotation Yrotation Xrotation
		JOINT KneeRight
		{
			OFFSET 0 -0.3732 0
			CHANNELS 3 Zrotation Yrotation Xrotation
			JOINT AnkleRight
			{
				OFFSET 0 -0.346 0
				CHANNELS 3 Zrotation Yrotation Xrotation
				End Site
				{
					OFFSET 0.0 0.0 0.0891
				}
			}
		}
	}
}
MOTION
Frames: 36
Frame Time: 0.033333
0.0 0.7192 0.0 10.6526 -10.229 0.0 -17.8566 4.36136 13.282 3.97569e-16 8.53774e-07 5.33608e-08 0 0 0 0 0 0 0 0 0 0 0 0 0 0 0 0 0 0 -13.6626 0.198084 17.7292 15.4292 -6.13986 -44.3073 0 1.06722e-07 0 -3.17547 0.324874 7.49114 1.70419 0.154846 6.01899 0 0 0
0.002358199999999998 0.7192 0.0 11.1518 -10.962 1.1782000000000004 -20.5216 4.06866 8.99138 0 0 4.26887e-07 0 0 0 0 0 0 0 0 0 0 0 0 0 0 0 0 0 0 -14.6275 -1.44242 14.9088 15.5329 -3.88213 -41.7369 0 0 0 -3.59318 0.286619 6.99079 0.794942 0.154964 4.85748 0 0 0
0.01015322 0.712564 0.0014400000000001079 12.0416 -10.424 1.5751000000000026 -21.3937 3.48065 8.28567 0 0 0 0 0 0 0 0 0 0 0 0 0 0 0 0 0 0 0 0 0 -15.6683 -2.63949 13.5356 18.2562 -3.69701 -40.9957 0 0 0 -5.45977 0.425422 5.53093 1.90325 0.364406 5.91543 0 0 0
0.013064169999999998 0.710731 0.0018299999999999983 12.3007 -10.7925 2.3028000000000013 -23.9814 2.78024 5.66217 0 0 0 0 0 0 0 0 0 0 0 0 0 0 0 0 0 0 0 0 0 -15.6774 -2.77256 12.0448 17.8255 -3.51999 -39.8344 0 0 0 -6.43098 0.357323 4.34843 2.32902 0.468439 6.47673 0 0 0
0.019003081999999998 0.710547 0.0020299999999999763 12.0015 -10.812 2.740400000000001 -24.0244 2.04554 4.19356 0 0 0 0 0 0 0 0 0 0 0 0 -7.24013 15.8136 -30.2965 1.98021e-06 -23.8138 6.12656e-06 0 0 0 -14.5691 -0.503115 10.5186 12.5215 -4.72516 -36.71 0 -1.06722e-07 0 -6.95334 0.23202 3.7584 3.15653 0.460272 7.30439 0 0 0
0.02656691 0.709134 0.003830000000000222 11.6345 -10.8964 2.5385000000000026 -23.1268 1.55271 4.47636 -1.06722e-07 0 0 0 0 0 0 0 0 0 0 0 -7.70156 16.764 -29.3374 2.87325e-07 -24.6116 -1.03304e-05 0 0 0 -14.0044 -0.659767 9.1062 11.9168 -4.99508 -37.3966 0 0 0 -6.87293 0.182729 3.71995 3.48107 0.442627 7.85483 0 0 0
0.0369563 0.708051 0.0044800000000000395 10.0592 -10.3808 2.4947000000000017 -19.9334 1.70556 5.2189 0 0 0 0 0 0 0 0 0 0 0 0 -9.40832 15.723 -29.1747 -2.12146e-06 -24.0679 1.76168e-06 1.23246e-14 4.26887e-07 3.30837e-06 -11.8904 -0.0234805 8.6237 8.80099 -4.60951 -35.6206 4.26887e-07 1.70755e-06 3.41509e-06 -5.68504 0.140987 4.10746 3.57792 0.272583 7.73874 -2.66804e-08 0 0
0.045286599999999996 0.708051 0.0044800000000000395 8.98457 -10.5203 2.4520000000000017 -17.135 2.35199 5.95884 8.53774e-07 5.33608e-08 8.53774e-07 0 0 0 0 0 0 0 0 0 -10.0954 11.5096 -29.1595 2.1852 -16.2026 -0.409652 0 0 0 -9.86754 0.708748 8.02844 6.09452 -5.0492 -33.654 -7.76503e-19 1.33402e-08 -6.67011e-09 -4.6243 0.178861 4.36388 3.45702 0.297592 7.80376 0 0 0
0.0454099 0.708051 0.0044800000000000395 7.90076 -10.0536 2.395900000000001 -15.6905 3.75116 6.17584 0 0 0 0 0 0 0 0 0 0 0 0 -9.58857 8.38373 -28.3919 0.472954 -15.5649 0.0432841 0 0 0 -8.29323 1.02726 8.57058 3.59911 -4.44224 -34.007 0 0 0 -3.87624 -0.00916597 4.34983 3.5812 -0.00461876 8.25475 0 0 0
0.0468778 0.716827 0.00013000000000040757 6.2137 -7.78763 2.6660000000000004 -13.6043 1.46686 7.14935 0 0 0 0 0 0 0 0 0 0 0 0 -12.1912 7.683 -28.7948 3.62431 -15.0469 -0.404829 0 0 0 -4.95387 2.67089 9.2205 -2.52339 -5.81932 -32.407 0 0 0 -3.94289 -0.632307 1.54898 6.07658 -0.479544 12.0919 -8.40433e-07 8.53774e-07 -5.33609e-08
0.0468778 0.718078 0.00013000000000040757 6.28005 -8.02965 2.6720000000000006 -13.6097 1.68958 6.86947 0 0 0 0 0 0 0 0 0 0 0 0 -11.6054 13.9352 -21.0707 -2.73415e-06 -24.5568 -9.0163e-06 0 1.70755e-06 0 -3.58675 3.15657 7.92805 -5.80343 -6.29383 -29.3085 0 0 0 -4.12352 -0.640416 1.56902 6.42061 -0.4068 11.6596 -8.53774e-07 8.53774e-07 -6.36111e-15
0.0468778 0.719832 0.00013000000000040757 6.40817 -8.59536 2.7499000000000002 -13.6626 1.96512 6.36369 8.53774e-07 0 0 0 0 0 0 0 0 0 0 0 -13.3169 15.6705 -22.0632 3.2413e-06 -24.9149 -1.809e-06 0 0 0 -3.2708 2.90779 4.49385 -8.69713 -5.90735 -23.1156 0 0 0 -3.27619 -0.448102 1.54398 5.17085 -0.214745 11.0552 0 0 0
0.043965599999999994 0.720057 0.0023100000000000342 7.35844 -8.6677 3.7840000000000007 -15.852 -1.26971 3.55337 0 0 0 0 0 0 0 0 0 0 0 0 -11.0893 22.7673 -15.9601 2.69939e-06 -28.044 3.28584e-06 0 0 0 -4.44514 2.31221 2.17259 -8.52129 -5.16061 -20.4741 0 0 0 -4.36621 -0.604573 0.018988 5.37923 -0.203938 11.4829 0 0 0
0.0378702 0.720175 0.006520000000000081 6.84363 -10.8484 2.950800000000001 -14.7293 -0.471865 3.56368 8.53774e-07 -5.33608e-08 1.06722e-07 0 0 0 0 0 0 0 0 0 -11.4775 26.0773 -17.4897 1.67769e-07 -27.9659 -7.74042e-06 0 0 0 -3.47974 2.01755 2.3962 -7.84795 -4.66464 -19.3542 2.54444e-14 8.53774e-07 3.41509e-06 -1.46774 -0.189555 2.38457 3.29566 -0.10552 9.91416 -1.2424e-17 2.66804e-08 -5.33609e-08
0.0373661 0.720057 0.007470000000000088 7.6614 -12.1081 2.5511000000000017 -14.4563 1.0435 2.21791 0 0 0 0 0 0 0 0 0 0 0 0 -10.5086 27.1343 -12.1471 -3.33213e-06 -29.5132 -2.43317e-06 2.13443e-07 1.70755e-06 -2.13443e-07 -3.95076 1.95613 2.5374 -6.92683 -4.71506 -20.7221 4.26887e-07 -3.97569e-16 1.06722e-07 -0.511283 0.0504125 3.31744 0.726211 0.0579038 4.89011 0 0 0
0.0362112 0.720057 0.00898000000000021 7.4526 -13.0109 1.9079000000000015 -12.911 1.9642 3.21186 4.26887e-07 8.00413e-07 5.33609e-08 0 0 0 0 0 0 0 0 0 -10.8829 26.38 -10.4063 -1.22935e-06 -29.6455 -4.53207e-06 0 0 0 -3.44271 1.44934 1.86829 -6.67477 -3.71264 -16.8566 0 0 0 -0.595342 0.111394 5.05647 2.04281 0.0135714 4.3336 0 0 0
0.0325036 0.720057 0.016020000000000145 6.8917 -12.5655 0.45940000000000225 -11.4859 3.04568 5.09495 0 0 0 0 0 0 0 0 0 0 0 0 -10.1626 24.4923 -4.75644 3.50412e-06 -29.8239 2.60096e-06 0 0 0 0.266456 2.45531 -7.42766 -16.062 1.74063 5.86364 0 0 0 -0.0978964 0.0211985 6.45081 2.62137 -0.0973826 3.6647 0 0 0
0.02707019 0.723643 0.019000000000000128 4.3566 -7.93689 2.441600000000001 -8.62348 1.86881 3.66795 0 0 0 0 0 0 0 0 0 0 0 0 -15.9178 18.1866 -17.1261 -2.07482e-06 -26.1699 -5.21521e-06 0 0 0 -0.0435279 2.34692 -5.4576 -15.2849 1.30211 5.14251 0 0 0 2.37935 -0.37785 3.65555 2.39786 -0.717519 7.12694 2.66804e-08 8.53774e-07 1.98785e-16
0.026463249999999997 0.723397 0.019000000000000128 3.62087 -4.60225 2.1037999999999997 -8.50967 1.75191 4.94883 0 0 0 0 0 0 0 0 0 0 0 0 -17.2796 9.84858 -16.752 6.01644 -18.592 -1.02761 0 0 0 1.04946 2.74419 -3.20665 -16.3141 2.06407 7.29999 0 0 0 2.22115 -0.27772 2.54876 2.46004 -0.632257 8.76784 2.66804e-08 -9.31803e-17 4.00206e-07
0.02707019 0.723643 0.019000000000000128 3.72973 -4.30208 2.0974000000000004 -7.79682 2.03689 5.25364 2.66804e-08 -5.33609e-08 -8.53774e-07 0 0 0 0 0 0 0 0 0 -18.3012 8.18204 -16.7708 7.69026 -15.2411 -1.17184 0 0 0 -1.0228 1.43091 -1.67671 -11.6467 1.72833 7.3903 0 0 0 1.41552 -0.407947 2.79927 3.89994 -0.804121 9.42223 0 0 0
0.026463249999999997 0.727826 0.017010000000000414 3.82493 -3.21151 1.4936000000000007 -8.4423 2.22724 6.45275 0 0 8.53774e-07 0 0 0 0 0 0 0 0 0 -17.1528 7.49543 -16.7979 6.47432 -16.4842 -1.17385 0 8.53774e-07 0 -2.05343 0.798776 0.338435 -8.52843 1.08514 5.63479 0 0 0 1.06613 -0.417579 2.59052 4.08484 -0.810414 9.44893 0 2.40124e-07 0
0.019801449999999998 0.72945 0.011430000000000273 2.49649 -3.20869 1.701900000000002 -6.57998 1.39137 7.09932 0 0 0 0 0 0 0 0 0 0 0 0 -16.8161 7.09169 -17.4164 4.81196 -16.0918 -0.92666 0 0 0 -2.70706 0.202392 1.25259 -3.82363 0.299196 3.11229 0 3.73526e-07 0 2.87486 -0.505434 1.89481 3.69122 -1.35885 10.1308 1.33402e-08 2.66804e-08 -2.66804e-08
0.013097139999999998 0.738189 -0.013239999999999696 0.192783 -0.158399 6.686400000000001 -5.14603 -1.3248 2.63833 0 0 0 0 0 0 0 0 0 0 0 0 -16.0985 8.7391 -17.0629 1.90131 -20.8128 -0.650515 0 0 0 -2.75788 -0.442671 -4.80203 -2.50479 0.0489166 0.329966 0 0 0 6.95286 0.0613629 -7.22317 2.98246 -1.62232 13.651 2.00338e-16 5.33608e-08 4.30222e-07
-0.0010579000000000005 0.74512 -0.015499999999999847 2.07501 -0.766475 6.3939 -10.1993 0.772329 3.30676 0 0 0 0 0 0 0 0 0 0 0 0 -11.0828 6.92799 -17.1424 0.0919985 -19.5327 -0.449415 0 0 0 -4.40648 -0.284586 -3.84266 -2.35701 -0.529514 -3.76512 0 0 0 1.36193 -1.91092 -5.97388 12.205 -2.45554 11.2466 0 0 0
-0.0010579000000000005 0.74512 -0.018109999999999626 2.17967 -1.18375 6.3195000000000014 -10.162 1.3808 3.61169 0 -5.33609e-08 0 0 0 0 0 0 0 0 0 0 -10.8453 6.77952 -17.3778 -0.0271221 -19.2494 -0.507506 0 0 0 -4.42548 -0.156944 -3.08382 -2.55193 -0.792394 -5.54374 0 0 0 1.44215 -2.01008 -6.60106 11.9532 -2.834 13.0343 -1.33402e-08 -3.10601e-18 -2.66804e-08
-0.0010579000000000005 0.738189 -0.018109999999999626 2.38001 -1.26079 5.232400000000002 -10.537 0.127707 5.65636 0 0 1.33402e-08 0 0 0 0 0 0 0 0 0 -11.0592 9.00449 -18.6675 -0.0554804 -20.1699 -0.574275 0 0 0 -4.5895 0.221357 -0.091817 -1.96742 -1.6332 -11.2251 0 0 0 0.445721 -2.29767 -5.63178 12.5043 -2.68719 13.2226 0 0 0
0.0088893 0.732899 -0.017169999999999686 5.35133 -2.03405 5.2707000000000015 -13.6712 -0.0785844 5.37765 0 0 0 0 0 0 0 0 0 0 0 0 -10.5924 11.2126 -19.0686 -0.91873 -20.6962 -0.441653 0 0 0 -6.7185 0.545809 0.0213063 -3.62081 -2.43057 -13.9609 0 0 0 -2.7922 -1.89602 -6.26569 10.317 -2.02609 13.6904 0 0 0
0.009928279999999998 0.727066 -0.017169999999999686 5.37771 -3.54929 5.398100000000001 -12.81 1.25086 5.05774 0 0 0 0 0 0 0 0 0 0 0 0 -11.6693 10.9355 -19.3154 -0.168482 -20.8872 -0.509389 0 8.53774e-07 0 -6.43094 0.514993 0.200129 -2.68554 -2.71665 -15.7512 0 0 0 -0.576242 -0.957666 -7.99848 4.75753 -1.27561 17.8691 1.49089e-15 4.00206e-07 4.26887e-07
0.009928279999999998 0.722752 -0.017169999999999686 5.29024 -3.56655 5.624600000000001 -12.7307 1.15491 4.99244 0 0 0 0 0 0 0 0 0 0 0 0 -11.8198 10.9616 -19.4954 0.256126 -20.342 -0.606728 0 0 0 -6.37921 0.481581 -0.0563898 -2.59768 -2.77906 -15.9294 -1.06722e-07 1.61513e-15 1.73423e-06 -0.618349 -1.05063 -8.64769 4.84369 -1.25427 18.4145 0 0 0
0.009928279999999998 0.722037 -0.017169999999999686 4.79333 -1.77275 5.812500000000002 -12.539 -0.418414 5.27506 0 0 0 0 0 0 0 0 0 0 0 0 -11.9465 10.6516 -19.4764 0.0732381 -20.8865 -0.54469 0 0 0 -5.814 1.19363 3.01374 -3.05546 -3.80775 -21.1213 0 0 0 -0.914425 -1.22367 -9.21436 5.34748 -1.35869 18.7576 0 0 0
0.009928279999999998 0.720204 -0.017349999999999977 4.0437 0.59083 6.1035 -11.8364 0.78067 5.52839 0 0 0 0 0 0 0 0 0 0 0 0 -13.0865 6.21292 -18.8363 1.7409 -20.86 -0.679564 0 0 -1.70755e-06 -6.3975 1.71832 5.87473 -2.48913 -4.66609 -23.8897 -5.33609e-08 1.06722e-07 -1.33402e-08 -1.63675 -1.90135 -11.2066 6.89648 -1.63793 20.0834 -1.66753e-09 5.33608e-08 -7.76503e-19
0.013400409999999998 0.720204 -0.017679999999999918 4.58636 1.33988 6.174700000000001 -11.9857 1.26347 5.64557 1.66753e-09 -5.33609e-08 -7.76503e-19 0 0 0 0 0 0 0 0 0 -12.9906 4.11006 -16.6794 -1.4514e-06 -22.6056 -2.53955e-06 1.06722e-06 1.4941e-06 1.39149e-14 -7.96122 1.9315 8.39908 0.0454593 -5.26083 -28.8766 0 0 0 -2.40494 -1.68548 -10.6277 6.73885 -1.35051 17.7572 0 0 0
0.014506439999999999 0.7166629999999999 -0.017679999999999918 4.68809 1.66881 6.375700000000002 -12.1455 0.984536 5.80849 0 0 0 0 0 0 0 0 0 0 0 0 -12.2563 3.78746 -16.9052 0.141256 -21.8524 -0.302027 -1.59028e-15 8.53774e-07 -2.13443e-07 -8.13289 2.1881 8.47315 0.236959 -5.9968 -29.1166 0 0 0 -2.70575 -1.99777 -11.0439 6.9802 -1.04527 17.9864 0 0 0
0.014663369999999998 0.71597 -0.017349999999999977 4.72979 1.56721 6.310900000000002 -11.9213 1.22525 6.64809 0 0 0 0 0 0 0 0 0 0 0 0 -12.201 3.33622 -17.314 3.06465e-06 -22.5139 4.83077e-06 0 0 0 -8.39209 1.82571 8.57799 0.706783 -5.15532 -29.4181 2.13443e-07 2.13443e-07 6.67011e-09 -2.92483 -1.84598 -11.0224 7.07027 -1.38106 18.0046 0 0 0
0.01628828 0.71597 -0.0112899999999998 5.49284 -0.136974 5.070600000000001 -12.1191 2.83494 7.66465 0 0 0 0 0 0 0 0 0 0 0 0 -12.7332 3.10028 -17.5921 0.770987 -21.4972 -0.0932157 0 0 0 -9.67635 1.34096 10.2981 3.70571 -4.53459 -32.684 2.13443e-07 -1.2424e-17 6.67011e-09 -3.75124 -1.53431 -8.08488 6.85693 -1.19855 16.3364 0 0 0
0.019489482 0.710574 -0.010489999999999888 6.16727 -0.582184 5.167900000000001 -12.9234 0.743214 7.67206 0 0 0 0 0 0 0 0 0 0 0 0 -13.3016 4.93603 -18.4518 1.70114 -20.5555 -0.20471 0 0 0 -10.6341 1.47141 10.2015 5.18622 -5.2092 -31.3577 0 0 0 -5.0239 -1.83766 -7.76295 7.02984 -0.371944 15.0485 6.67011e-09 2.13443e-07 1.2424e-17
